<svg width="47" height="47" xmlns="http://www.w3.org/2000/svg">
 <g>
  <title>Layer 1</title>
  <path d="m23.5,11.449c-6.385,0 -11.563,4.959 -11.563,11.077c0,7.265 5.045,9.117 5.045,13.344c0,1.045 0.799,2.017 1.999,2.731c-0.251,0.209 -0.391,0.438 -0.391,0.678c0,0.322 0.253,0.623 0.688,0.881c-0.408,0.253 -0.645,0.544 -0.645,0.855c0,0.314 0.242,0.608 0.659,0.863c-0.426,0.256 -0.674,0.555 -0.674,0.872c0,0.388 0.366,0.743 0.978,1.032c-0.237,0.215 -0.373,0.453 -0.373,0.703c0,0.74 1.153,1.369 2.774,1.621c0.285,0.528 0.863,0.894 1.537,0.894c0.673,0 1.25,-0.363 1.535,-0.889c1.637,-0.248 2.803,-0.881 2.803,-1.623c0,-0.247 -0.131,-0.482 -0.363,-0.694c0.625,-0.291 0.998,-0.651 0.998,-1.042c0,-0.314 -0.241,-0.609 -0.659,-0.863c0.425,-0.257 0.674,-0.554 0.674,-0.871c0,-0.322 -0.254,-0.623 -0.688,-0.882c0.41,-0.252 0.646,-0.544 0.646,-0.855c0,-0.249 -0.151,-0.484 -0.421,-0.698c1.181,-0.713 1.966,-1.675 1.966,-2.711c0,-4.229 5.039,-6.08 5.039,-13.344c-0.001,-6.12 -5.178,-11.079 -11.564,-11.079zm6.038,17.932c-1.152,1.692 -2.455,3.604 -2.535,6.232c-0.396,0.441 -1.809,1.158 -3.499,1.158c-1.691,0 -3.105,-0.717 -3.5,-1.16c-0.08,-2.629 -1.385,-4.541 -2.539,-6.232c-1.287,-1.886 -2.502,-3.667 -2.502,-6.854c0,-4.439 3.83,-8.051 8.537,-8.051c4.708,0 8.538,3.612 8.538,8.051c0,3.188 -1.215,4.97 -2.5,6.856z" fill="#32c755" id="svg_3"/>
  <g id="svg_13"/>
  <g id="svg_14"/>
  <g id="svg_15"/>
  <g id="svg_16"/>
  <g id="svg_17"/>
  <g id="svg_18"/>
  <g id="svg_19"/>
  <g id="svg_20"/>
  <g id="svg_21"/>
  <g id="svg_22"/>
  <g id="svg_23"/>
  <g id="svg_24"/>
  <g id="svg_25"/>
  <g id="svg_26"/>
  <g id="svg_27"/>
 </g>
</svg>