<svg width="47" height="47" xmlns="http://www.w3.org/2000/svg">
 <g>
  <title>Layer 1</title>
  <g id="svg_27">
   <g id="svg_28">
    <path d="m23.5,11.449c-6.385,0 -11.563,4.959 -11.563,11.077c0,7.265 5.045,9.117 5.045,13.344c0,1.045 0.799,2.017 1.999,2.731c-0.251,0.209 -0.391,0.438 -0.391,0.678c0,0.322 0.253,0.623 0.688,0.881c-0.408,0.253 -0.645,0.544 -0.645,0.855c0,0.314 0.242,0.608 0.659,0.863c-0.426,0.256 -0.674,0.555 -0.674,0.872c0,0.388 0.366,0.743 0.978,1.032c-0.237,0.215 -0.373,0.453 -0.373,0.703c0,0.74 1.153,1.369 2.774,1.621c0.285,0.528 0.863,0.894 1.537,0.894c0.673,0 1.25,-0.363 1.535,-0.889c1.637,-0.248 2.803,-0.881 2.803,-1.623c0,-0.247 -0.131,-0.482 -0.363,-0.694c0.625,-0.291 0.998,-0.651 0.998,-1.042c0,-0.314 -0.241,-0.609 -0.659,-0.863c0.425,-0.257 0.674,-0.554 0.674,-0.871c0,-0.322 -0.254,-0.623 -0.688,-0.882c0.41,-0.252 0.646,-0.544 0.646,-0.855c0,-0.249 -0.151,-0.484 -0.421,-0.698c1.181,-0.713 1.966,-1.675 1.966,-2.711c0,-4.229 5.039,-6.08 5.039,-13.344c-0.001,-6.12 -5.178,-11.079 -11.564,-11.079zm6.038,17.932c-1.152,1.692 -2.455,3.604 -2.535,6.232c-0.396,0.441 -1.809,1.158 -3.499,1.158c-1.691,0 -3.105,-0.717 -3.5,-1.16c-0.08,-2.629 -1.385,-4.541 -2.539,-6.232c-1.287,-1.886 -2.502,-3.667 -2.502,-6.854c0,-4.439 3.83,-8.051 8.537,-8.051c4.708,0 8.538,3.612 8.538,8.051c0,3.188 -1.215,4.97 -2.5,6.856z" fill="#32c755" id="svg_29"/>
    <path d="m23.5,7.564c0.832,0 1.513,-0.9 1.513,-2v-3.564c0,-1.1 -0.681,-2 -1.513,-2s-1.513,0.9 -1.513,2v3.564c0,1.101 0.681,2 1.513,2z" fill="#32c755" id="svg_30"/>
    <path d="m15.747,9.642c0.721,-0.416 0.859,-1.536 0.31,-2.488l-1.781,-3.087c-0.55,-0.953 -1.59,-1.392 -2.311,-0.976c-0.721,0.416 -0.86,1.536 -0.311,2.488l1.783,3.087c0.55,0.953 1.589,1.392 2.31,0.976z" fill="#32c755" id="svg_31"/>
    <path d="m9.095,13.007l-3.085,-1.782c-0.953,-0.55 -2.073,-0.411 -2.489,0.31c-0.416,0.721 0.022,1.76 0.976,2.31l3.086,1.782c0.953,0.55 2.073,0.411 2.488,-0.31c0.415,-0.721 -0.023,-1.76 -0.976,-2.31z" fill="#32c755" id="svg_32"/>
    <path d="m42.504,32.295l-3.086,-1.781c-0.953,-0.551 -2.073,-0.412 -2.488,0.31c-0.416,0.721 0.021,1.76 0.977,2.31l3.084,1.782c0.953,0.55 2.073,0.411 2.489,-0.31c0.416,-0.722 -0.022,-1.761 -0.976,-2.311z" fill="#32c755" id="svg_33"/>
    <path d="m7.994,23.07c0,-0.833 -0.9,-1.513 -2,-1.513h-3.564c-1.1,0 -2,0.681 -2,1.513c0,0.832 0.9,1.513 2,1.513h3.564c1.1,0 2,-0.681 2,-1.513z" fill="#32c755" id="svg_34"/>
    <path d="m44.57,21.557h-3.563c-1.101,0 -2,0.681 -2,1.513c0,0.832 0.899,1.513 2,1.513h3.563c1.101,0 2,-0.681 2,-1.513c0,-0.832 -0.9,-1.513 -2,-1.513z" fill="#32c755" id="svg_35"/>
    <path d="m7.582,30.514l-3.086,1.781c-0.953,0.55 -1.392,1.589 -0.976,2.311c0.416,0.721 1.536,0.859 2.489,0.31l3.085,-1.782c0.953,-0.55 1.392,-1.589 0.976,-2.31c-0.415,-0.72 -1.535,-0.861 -2.488,-0.31z" fill="#32c755" id="svg_36"/>
    <path d="m39.418,15.627l3.086,-1.782c0.953,-0.55 1.392,-1.589 0.976,-2.31c-0.416,-0.721 -1.536,-0.86 -2.489,-0.31l-3.085,1.782c-0.952,0.55 -1.392,1.589 -0.976,2.31c0.415,0.721 1.535,0.86 2.488,0.31z" fill="#32c755" id="svg_37"/>
    <path d="m35.036,3.09c-0.722,-0.416 -1.762,0.023 -2.312,0.976l-1.781,3.087c-0.55,0.953 -0.411,2.072 0.31,2.488c0.722,0.416 1.761,-0.023 2.311,-0.976l1.783,-3.087c0.549,-0.952 0.409,-2.072 -0.311,-2.488z" fill="#32c755" id="svg_38"/>
   </g>
  </g>
  <g id="svg_39"/>
  <g id="svg_40"/>
  <g id="svg_41"/>
  <g id="svg_42"/>
  <g id="svg_43"/>
  <g id="svg_44"/>
  <g id="svg_45"/>
  <g id="svg_46"/>
  <g id="svg_47"/>
  <g id="svg_48"/>
  <g id="svg_49"/>
  <g id="svg_50"/>
  <g id="svg_51"/>
  <g id="svg_52"/>
  <g id="svg_53"/>
 </g>
</svg>