<svg xmlns:xlink="http://www.w3.org/1999/xlink" xmlns="http://www.w3.org/2000/svg" style="font-family: dosis, sans-serif; font-size: 12px;" width="800" height="600" version="1.1"><desc>Created with Highstock 4.2.3</desc><defs><clipPath id="highcharts-17"><rect x="0" y="0" width="780" height="438" /></clipPath><clipPath id="highcharts-18"><rect x="0" y="0" width="780" height="438" /></clipPath><clipPath id="highcharts-19"><rect x="0" y="0" width="752" height="40" /></clipPath></defs><g class="highcharts-scrollbar" transform="translate(10 572)"><rect fill="#eeeeee" stroke="#eeeeee" stroke-width="1" x="0" y="-0.5" width="780" height="14" rx="0" ry="0" /><rect fill="#bfc8d1" stroke="#bfc8d1" stroke-width="1" x="234.5" y="-0.5" width="266" height="14" rx="0" ry="0" /><path visibility="visible" fill="none" stroke="#666" stroke-width="1" d="M 364 3.5 L 364 9.33333 M 367 3.5 L 367 9.33333 M 370 3.5 L 370 9.33333" /><g><rect fill="#ebe7e8" stroke="#bbb" stroke-width="1" x="-0.5" y="-0.5" width="14" height="14" /><path fill="#666" d="M 8 4 L 8 10 L 5 7" /></g><g transform="translate(766)"><rect fill="#ebe7e8" stroke="#bbb" stroke-width="1" x="-0.5" y="-0.5" width="14" height="14" /><path fill="#666" d="M 6 4 L 6 10 L 9 7" /></g></g><g class="highcharts-range-selector-buttons" transform="translate(0 10)"><text style="color: rgb(102, 102, 102); fill: #666;" x="10" y="15">Zoom</text><g class="highcharts-button" style="text-align: center; cursor: pointer;" transform="translate(41)"  states="[object Object]"><rect fill="#f7f7f7" x="0" y="0" width="32" height="22" rx="0" ry="0" /><text style="color: rgb(68, 68, 68); font-weight: normal; fill: #444;" x="11.625" y="14" >1h</text></g><g class="highcharts-button" style="text-align: center; cursor: pointer;" transform="translate(78)"  states="[object Object]"><rect fill="#f7f7f7" x="0" y="0" width="32" height="22" rx="0" ry="0" /><text style="color: rgb(68, 68, 68); font-weight: normal; fill: #444;" x="11.695" y="14" >1d</text></g><g class="highcharts-button" style="text-align: center; cursor: pointer;" transform="translate(115)"  states="[object Object]"><rect fill="#f7f7f7" x="0" y="0" width="32" height="22" rx="0" ry="0" /><text style="color: rgb(68, 68, 68); font-weight: normal; fill: #444;" x="9.92" y="14" >1m</text></g><g class="highcharts-button" style="text-align: center; cursor: pointer;" transform="translate(152)"  states="[object Object]"><rect fill="#f7f7f7" x="0" y="0" width="32" height="22" rx="0" ry="0" /><text style="color: rgb(204, 204, 204); font-weight: normal; fill: #ccc;" x="12.08" y="14" >1y</text></g><g class="highcharts-button" style="text-align: center; cursor: pointer;" transform="translate(189)"  states="[object Object]"><rect fill="#f7f7f7" x="0" y="0" width="32" height="22" rx="0" ry="0" /><text style="color: rgb(68, 68, 68); font-weight: normal; fill: #444;" x="10.28" y="14" >All</text></g></g><g class="highcharts-grid" ><path opacity="1" fill="none" stroke="#d8d8d8" stroke-width="1" d="M 57.5 45 L 57.5 483"  /><path opacity="1" fill="none" stroke="#d8d8d8" stroke-width="1" d="M 152.5 45 L 152.5 483"  /><path opacity="1" fill="none" stroke="#d8d8d8" stroke-width="1" d="M 243.5 45 L 243.5 483"  /><path opacity="1" fill="none" stroke="#d8d8d8" stroke-width="1" d="M 329.5 45 L 329.5 483"  /><path opacity="1" fill="none" stroke="#d8d8d8" stroke-width="1" d="M 432.5 45 L 432.5 483"  /><path opacity="1" fill="none" stroke="#d8d8d8" stroke-width="1" d="M 516.5 45 L 516.5 483"  /><path opacity="1" fill="none" stroke="#d8d8d8" stroke-width="1" d="M 601.5 45 L 601.5 483"  /><path opacity="1" fill="none" stroke="#d8d8d8" stroke-width="1" d="M 700.5 45 L 700.5 483"  /><path opacity="1" fill="none" stroke="#d8d8d8" stroke-width="1" d="M 789.5 45 L 789.5 483"  /></g><g class="highcharts-grid" ><path opacity="1" fill="none" stroke="#eee" stroke-width="1" d="M 29.5 531 L 29.5 571"  /><path opacity="1" fill="none" stroke="#eee" stroke-width="1" d="M 175.5 531 L 175.5 571"  /><path opacity="1" fill="none" stroke="#eee" stroke-width="1" d="M 325.5 531 L 325.5 571"  /><path opacity="1" fill="none" stroke="#eee" stroke-width="1" d="M 475.5 531 L 475.5 571"  /><path opacity="1" fill="none" stroke="#eee" stroke-width="1" d="M 604.5 531 L 604.5 571"  /></g><g class="highcharts-grid" ><path opacity="1" fill="none" stroke="#e0e0e0" stroke-width="1" d="M 10 483.5 L 790 483.5" /><path opacity="1" fill="none" stroke="#e0e0e0" stroke-width="1" d="M 10 465.5 L 790 465.5" /><path opacity="1" fill="none" stroke="#e0e0e0" stroke-width="1" d="M 10 448.5 L 790 448.5" /><path opacity="1" fill="none" stroke="#e0e0e0" stroke-width="1" d="M 10 430.5 L 790 430.5" /><path opacity="1" fill="none" stroke="#e0e0e0" stroke-width="1" d="M 10 413.5 L 790 413.5" /><path opacity="1" fill="none" stroke="#e0e0e0" stroke-width="1" d="M 10 395.5 L 790 395.5" /><path opacity="1" fill="none" stroke="#e0e0e0" stroke-width="1" d="M 10 378.5 L 790 378.5" /><path opacity="1" fill="none" stroke="#e0e0e0" stroke-width="1" d="M 10 360.5 L 790 360.5" /><path opacity="1" fill="none" stroke="#e0e0e0" stroke-width="1" d="M 10 343.5 L 790 343.5" /><path opacity="1" fill="none" stroke="#e0e0e0" stroke-width="1" d="M 10 325.5 L 790 325.5" /><path opacity="1" fill="none" stroke="#e0e0e0" stroke-width="1" d="M 10 308.5 L 790 308.5" /><path opacity="1" fill="none" stroke="#e0e0e0" stroke-width="1" d="M 10 290.5 L 790 290.5" /><path opacity="1" fill="none" stroke="#e0e0e0" stroke-width="1" d="M 10 273.5 L 790 273.5" /><path opacity="1" fill="none" stroke="#e0e0e0" stroke-width="1" d="M 10 255.5 L 790 255.5" /><path opacity="1" fill="none" stroke="#e0e0e0" stroke-width="1" d="M 10 238.5 L 790 238.5" /><path opacity="1" fill="none" stroke="#e0e0e0" stroke-width="1" d="M 10 220.5 L 790 220.5" /><path opacity="1" fill="none" stroke="#e0e0e0" stroke-width="1" d="M 10 203.5 L 790 203.5" /><path opacity="1" fill="none" stroke="#e0e0e0" stroke-width="1" d="M 10 185.5 L 790 185.5" /><path opacity="1" fill="none" stroke="#e0e0e0" stroke-width="1" d="M 10 168.5 L 790 168.5" /><path opacity="1" fill="none" stroke="#e0e0e0" stroke-width="1" d="M 10 150.5 L 790 150.5" /><path opacity="1" fill="none" stroke="#e0e0e0" stroke-width="1" d="M 10 133.5 L 790 133.5" /><path opacity="1" fill="none" stroke="#e0e0e0" stroke-width="1" d="M 10 115.5 L 790 115.5" /><path opacity="1" fill="none" stroke="#e0e0e0" stroke-width="1" d="M 10 98.5 L 790 98.5" /><path opacity="1" fill="none" stroke="#e0e0e0" stroke-width="1" d="M 10 80.5 L 790 80.5" /><path opacity="1" fill="none" stroke="#e0e0e0" stroke-width="1" d="M 10 63.5 L 790 63.5" /><path opacity="1" fill="none" stroke="#e0e0e0" stroke-width="1" d="M 10 44.5 L 790 44.5" /><path opacity="1" fill="none" stroke="#d8d8d8" stroke-width="1" d="M 10 483.5 L 790 483.5"  /><path opacity="1" fill="none" stroke="#d8d8d8" stroke-width="1" d="M 10 395.5 L 790 395.5"  /><path opacity="1" fill="none" stroke="#d8d8d8" stroke-width="1" d="M 10 308.5 L 790 308.5"  /><path opacity="1" fill="none" stroke="#d8d8d8" stroke-width="1" d="M 10 220.5 L 790 220.5"  /><path opacity="1" fill="none" stroke="#d8d8d8" stroke-width="1" d="M 10 133.5 L 790 133.5"  /><path opacity="1" fill="none" stroke="#d8d8d8" stroke-width="1" d="M 10 44.5 L 790 44.5"  /></g><g class="highcharts-grid" ><path opacity="1" fill="none" stroke="#e0e0e0" stroke-width="1" d="M 24 567.5 L 776 567.5" /><path opacity="1" fill="none" stroke="#e0e0e0" stroke-width="1" d="M 24 561.5 L 776 561.5" /><path opacity="1" fill="none" stroke="#e0e0e0" stroke-width="1" d="M 24 555.5 L 776 555.5" /><path opacity="1" fill="none" stroke="#e0e0e0" stroke-width="1" d="M 24 548.5 L 776 548.5" /><path opacity="1" fill="none" stroke="#e0e0e0" stroke-width="1" d="M 24 542.5 L 776 542.5" /><path opacity="1" fill="none" stroke="#e0e0e0" stroke-width="1" d="M 24 536.5 L 776 536.5" /></g><g class="highcharts-axis" ><path opacity="1" fill="none" stroke="#c0d0e0" stroke-width="1" d="M 57.5 483 L 57.5 493" /><path opacity="1" fill="none" stroke="#c0d0e0" stroke-width="1" d="M 152.5 483 L 152.5 493" /><path opacity="1" fill="none" stroke="#c0d0e0" stroke-width="1" d="M 243.5 483 L 243.5 493" /><path opacity="1" fill="none" stroke="#c0d0e0" stroke-width="1" d="M 329.5 483 L 329.5 493" /><path opacity="1" fill="none" stroke="#c0d0e0" stroke-width="1" d="M 432.5 483 L 432.5 493" /><path opacity="1" fill="none" stroke="#c0d0e0" stroke-width="1" d="M 516.5 483 L 516.5 493" /><path opacity="1" fill="none" stroke="#c0d0e0" stroke-width="1" d="M 601.5 483 L 601.5 493" /><path opacity="1" fill="none" stroke="#c0d0e0" stroke-width="1" d="M 700.5 483 L 700.5 493" /><path opacity="1" fill="none" stroke="#c0d0e0" stroke-width="1" d="M 790.5 483 L 790.5 493" /><path fill="none" stroke="#c0d0e0" stroke-width="1" d="M 10 483.5 L 790 483.5"  /></g><g class="highcharts-axis"  /><g class="highcharts-axis"  /><g class="highcharts-axis"  /><g class="highcharts-series-group" ><g class="highcharts-series highcharts-series-0" clip-path="url(#highcharts-18&quot;)" transform="translate(10 45) scale(1)" ><path fill="none" stroke="#7cb5ec" stroke-linecap="round" stroke-linejoin="round" stroke-width="2" d="M 0 22.4256 L 21.0811 28.2267 L 42.1622 45.2335 L 63.2432 51.1584 L 84.3243 53.728 L 105.405 66.0504 L 126.486 55.772 L 147.568 70.08 L 168.649 81.1176 L 189.73 72.5829 L 210.811 85.7385 L 231.892 91.5907 L 252.973 97.528 L 274.054 98.7491 L 295.135 91.104 L 316.216 110.78 L 337.297 113.223 L 358.378 94.608 L 379.459 115.882 L 400.541 123.488 L 421.622 124.623 L 442.703 124.748 L 463.784 127.943 L 484.865 132.46 L 505.946 132.473 L 527.027 137.897 L 548.108 395.663 L 569.189 142.457 L 590.27 142.685 L 611.351 145.579 L 632.432 150.818 L 653.513 152.229 L 674.595 147.168 L 695.676 155.623 L 716.757 170.139 L 737.838 169.879 L 758.919 183.96 L 780 169.022"  /></g><g class="highcharts-markers highcharts-series-0" clip-path="none" transform="translate(10 45) scale(1)"  /><g class="highcharts-series highcharts-series-1" clip-path="url(#highcharts-19&quot;)" transform="translate(24 531) scale(1)" ><path fill="#4572a7" fill-opacity="0.05" d="M 0 3.33333 C 0 3.33333 90.24 9.18102 150.4 13.7714 C 210.56 18.3618 240.64 21.9528 300.8 26.2852 C 360.96 30.6177 391.04 34.2008 451.2 35.4337 C 511.36 36.6667 601.6 36.6667 601.6 36.6667 C 601.6 36.6667 601.6 40 601.6 40 L 601.6 40 C 601.6 40 601.6 40 601.6 40 C 541.44 40 511.36 40 451.2 40 C 391.04 40 360.96 40 300.8 40 C 240.64 40 210.56 40 150.4 40 C 90.24 40 0 40 0 40"  /><path fill="none" stroke="#4572a7" stroke-linecap="round" stroke-linejoin="round" stroke-width="1" d="M 0 3.33333 C 0 3.33333 90.24 9.18102 150.4 13.7714 C 210.56 18.3618 240.64 21.9528 300.8 26.2852 C 360.96 30.6177 391.04 34.2008 451.2 35.4337 C 511.36 36.6667 601.6 36.6667 601.6 36.6667"  /></g><g class="highcharts-markers highcharts-series-1" clip-path="none" transform="translate(24 531) scale(1)"  /></g><g class="highcharts-navigator" ><rect style="cursor: ew-resize;" fill="rgb(128, 179, 236)" fill-opacity=" 0.3" x="244" y="531" width="267" height="40" /><path fill="none" stroke="#b2b1b6" stroke-width="1" d="M 10 531.5 L 243.5 531.5 L 243.5 585.5 L 510.5 585.5 L 510.5 531.5 L 790 531.5 M 244.5 531.5 L 510.5 531.5" /></g><g class="highcharts-axis-labels highcharts-xaxis-labels" ><text style="color: rgb(96, 96, 96); font-size: 12px; cursor: default; fill: #606060;" opacity="1" text-anchor="middle" transform="translate(0)" x="58.4394" y="503"><tspan>19. Jan</tspan></text><text style="color: rgb(96, 96, 96); font-size: 12px; cursor: default; fill: #606060;" opacity="1" text-anchor="middle" transform="translate(0)" x="153.1958" y="503"><tspan>25. Jan</tspan></text><text style="color: rgb(96, 96, 96); font-size: 12px; cursor: default; fill: #606060;" opacity="1" text-anchor="middle" transform="translate(0)" x="244.0574" y="503"><tspan>30. Jan</tspan></text><text style="color: rgb(96, 96, 96); font-size: 12px; cursor: default; fill: #606060;" opacity="1" text-anchor="middle" transform="translate(0)" x="329.9699" y="503"><tspan>5. Feb</tspan></text><text style="color: rgb(96, 96, 96); font-size: 12px; cursor: default; fill: #606060;" opacity="1" text-anchor="middle" transform="translate(0)" x="433.3181" y="503"><tspan>11. Feb</tspan></text><text style="color: rgb(96, 96, 96); font-size: 12px; cursor: default; fill: #606060;" opacity="1" text-anchor="middle" transform="translate(0)" x="517.4608" y="503"><tspan>15. Feb</tspan></text><text style="color: rgb(96, 96, 96); font-size: 12px; cursor: default; fill: #606060;" opacity="1" text-anchor="middle" transform="translate(0)" x="601.8712" y="503"><tspan>19. Feb</tspan></text><text style="color: rgb(96, 96, 96); font-size: 12px; cursor: default; fill: #606060;" opacity="1" text-anchor="middle" transform="translate(0)" x="700.8337" y="503"><tspan>25. Feb</tspan></text><text style="color: rgb(96, 96, 96); font-size: 12px; cursor: default; fill: #606060;" opacity="1" text-anchor="middle" transform="translate(0)" x="776.23" y="503"><tspan>3. Mar</tspan></text></g><g class="highcharts-axis-labels highcharts-xaxis-labels" ><text style="color: rgb(136, 136, 136); font-size: 12px; cursor: default; fill: #888;" opacity="1" text-anchor="start" transform="translate(0)" x="33.3098" y="567"><tspan>2. Dec</tspan></text><text style="color: rgb(136, 136, 136); font-size: 12px; cursor: default; fill: #888;" opacity="1" text-anchor="start" transform="translate(0)" x="179.2993" y="567"><tspan>1. Jan</tspan></text><text style="color: rgb(136, 136, 136); font-size: 12px; cursor: default; fill: #888;" opacity="1" text-anchor="start" transform="translate(0)" x="329.2825" y="567"><tspan>30. Jan</tspan></text><text style="color: rgb(136, 136, 136); font-size: 12px; cursor: default; fill: #888;" opacity="1" text-anchor="start" transform="translate(0)" x="479.4829" y="567"><tspan>1. Mar</tspan></text><text style="color: rgb(136, 136, 136); font-size: 12px; cursor: default; fill: #888;" opacity="1" text-anchor="start" transform="translate(0)" x="608.43" y="567"><tspan>10. Mar</tspan></text></g><g class="highcharts-axis-labels highcharts-yaxis-labels" ><text style="width: 254px; color: rgb(96, 96, 96); font-size: 12px; cursor: default; -ms-text-overflow: clip; fill: #606060;" opacity="1" text-anchor="end" transform="translate(0)" x="790" y="481">4250</text><text style="width: 254px; color: rgb(96, 96, 96); font-size: 12px; cursor: default; -ms-text-overflow: clip; fill: #606060;" opacity="1" text-anchor="end" transform="translate(0)" x="790" y="393">4300</text><text style="width: 254px; color: rgb(96, 96, 96); font-size: 12px; cursor: default; -ms-text-overflow: clip; fill: #606060;" opacity="1" text-anchor="end" transform="translate(0)" x="790" y="306">4350</text><text style="width: 254px; color: rgb(96, 96, 96); font-size: 12px; cursor: default; -ms-text-overflow: clip; fill: #606060;" opacity="1" text-anchor="end" transform="translate(0)" x="790" y="218">4400</text><text style="width: 254px; color: rgb(96, 96, 96); font-size: 12px; cursor: default; -ms-text-overflow: clip; fill: #606060;" opacity="1" text-anchor="end" transform="translate(0)" x="790" y="131">4450</text><text style="width: 254px; color: rgb(96, 96, 96); font-size: 12px; cursor: default; -ms-text-overflow: clip; fill: #606060;" text-anchor="end" transform="translate(0)" x="0" y="-9999">4500</text></g><g class="highcharts-axis-labels highcharts-yaxis-labels"  /><g class="highcharts-tooltip" style="padding: 0px; white-space: nowrap; cursor: default; pointer-events: none;" transform="translate(0 -9999)" ><path fill="rgb(219, 219, 216)" fill-opacity=" 0.8" d="M 3 0 L 13 0 C 16 0 16 0 16 3 L 16 13 C 16 16 16 16 13 16 L 3 16 C 0 16 0 16 0 13 L 0 3 C 0 0 0 0 3 0" /><text style="color: rgb(51, 51, 51); font-size: 12px; fill: #333333;" x="8" y="20"  /></g><text style="color: rgb(144, 144, 144); font-size: 9px; cursor: pointer; fill: #909090;" text-anchor="end" x="790" y="595" >Highcharts.com</text><g class="highcharts-navigator-handle-right" style="cursor: ew-resize;" transform="translate(511 543)" ><rect fill="#ebe7e8" stroke="#b2b1b6" stroke-width="1" x="-4.5" y="0.5" width="8" height="15" /><path fill="#ebe7e8" stroke="#b2b1b6" stroke-width="1" d="M -1.5 4 L -1.5 12 M 0.5 4 L 0.5 12" /></g><g class="highcharts-navigator-handle-left" style="cursor: ew-resize;" transform="translate(244 543)" ><rect fill="#ebe7e8" stroke="#b2b1b6" stroke-width="1" x="-4.5" y="0.5" width="8" height="15" /><path fill="#ebe7e8" stroke="#b2b1b6" stroke-width="1" d="M -1.5 4 L -1.5 12 M 0.5 4 L 0.5 12" /></g></svg>